<svg width="108" height="99" viewBox="0 0 108 99" fill="none" xmlns="http://www.w3.org/2000/svg">
  <path
    d="M76.8728 86.5664V55.1258C76.8728 41.9051 66.5622 31.0669 53.9438 31.0669C41.344 31.0669 31.0148 41.8856 31.0148 55.1258V86.5664C31.0148 86.7031 31.0148 86.8398 31.0148 86.9765H76.8356C76.8356 86.8398 76.8356 86.7031 76.8356 86.5664H76.8728Z"
    stroke="#313F36" stroke-width="3" stroke-miterlimit="10" stroke-linecap="round" />
  <path
    d="M81.5442 86.9768H23.9612C21.5765 86.9768 19.6434 89.0052 19.6434 91.5074V92.0151C19.6434 94.5173 21.5765 96.5457 23.9612 96.5457H81.5442C83.9288 96.5457 85.862 94.5173 85.862 92.0151V91.5074C85.862 89.0052 83.9288 86.9768 81.5442 86.9768Z"
    stroke="#313F36" stroke-width="3" stroke-miterlimit="10" stroke-linecap="round" />
  <path d="M53.5344 41.3781C53.5344 41.3781 68.4419 41.0851 68.4419 57.0202" stroke="#313F36" stroke-width="3"
    stroke-miterlimit="10" stroke-linecap="round" />
  <path d="M2 56.3953H23.0865" stroke="#313F36" stroke-width="3" stroke-miterlimit="10" stroke-linecap="round" />
  <path d="M17.1495 17.7881L32.0571 33.4303" stroke="#313F36" stroke-width="3" stroke-miterlimit="10"
    stroke-linecap="round" />
  <path d="M53.888 1.71606V23.8417" stroke="#313F36" stroke-width="3" stroke-miterlimit="10" stroke-linecap="round" />
  <path d="M90.7009 17.6121L75.7933 33.2543" stroke="#313F36" stroke-width="3" stroke-miterlimit="10"
    stroke-linecap="round" />
  <path d="M106.018 56.1609H84.9314" stroke="#313F36" stroke-width="3" stroke-miterlimit="10" stroke-linecap="round" />
</svg>