<svg width="119" height="87" viewBox="0 0 119 87" fill="none" xmlns="http://www.w3.org/2000/svg">
  <path
    d="M118.176 80.9885C118.046 79.9925 118.213 78.9771 118.157 77.9616C117.934 74.134 118.958 69.0762 117.041 66.8304C115.328 64.8581 110.322 66.0102 106.749 65.8345C105.353 65.7564 103.957 65.8345 102.189 65.8345C102.189 61.3039 102.115 57.3006 102.226 53.2973C102.301 50.7 101.351 49.665 98.839 49.7627C94.6328 49.8994 90.4267 49.8017 85.29 49.8017C85.29 45.4079 85.1784 41.2874 85.3273 37.1864C85.4389 34.4134 84.4898 33.3003 81.8097 33.4175C77.8828 33.5737 73.9558 33.4565 69.6194 33.4565C69.6194 29.2189 69.4519 25.4499 69.6753 21.72C69.8614 18.4588 68.8378 17.1308 65.5994 17.3066C61.4491 17.5409 57.2616 17.3652 53.3346 17.3652C53.0182 16.6426 52.8321 16.4278 52.8321 16.1935C52.7763 12.9127 52.7391 9.65148 52.7019 6.37072C52.646 1.27383 52.646 1.23476 47.9746 1.23476C33.6626 1.21523 19.3506 1.31289 5.03863 1.15666C1.78167 1.1176 1 2.34789 1 5.55053C1.09306 30.6444 1.11167 55.7188 1 80.8127C1 84.3473 1.81889 85.6167 5.41085 85.5776C24.1709 85.4019 42.931 85.4995 61.6911 85.4995C79.1297 85.4995 96.5684 85.4214 113.988 85.5776C117.357 85.6167 118.66 84.4645 118.232 81.008L118.176 80.9885ZM98.597 53.5121V65.6978H69.9172V53.5121H98.597ZM81.9214 37.3036V49.4307H52.9624V37.3036H81.9214ZM66.0647 21.2513V33.1636H37.0685V21.2513H66.0647ZM49.2588 37.245V49.5869H20.3556V37.245H49.2588ZM20.337 4.88658H49.2402V17.2285H20.337V4.88658ZM4.4989 5.14043H16.5403V17.0527H4.4989V5.14043ZM4.42446 21.2318H33.4207V33.1636H4.42446V21.2318ZM4.40585 37.2059H16.5031V49.3135H4.40585V37.2059ZM4.44307 53.4535H33.3648V65.6587H4.44307V53.4535ZM16.3914 81.7501H4.44307V69.662H16.3914V81.7501ZM49.296 81.7305H20.3556V69.8183H49.296V81.7305ZM37.5896 65.8345H36.4915V59.6049C36.4357 58.5895 36.4171 57.7302 36.4915 57.0077V53.7074H39.0599C40.6604 53.2778 43.1171 53.2778 46.8393 53.2778C53.1671 53.2778 59.4763 53.2778 66.0089 53.2778V53.7074H66.0647V65.8345H37.5896ZM81.8656 81.711H52.9996V69.662H81.8656V81.711ZM114.379 69.8183V82.043C109.373 82.043 104.366 82.043 99.3601 82.043C97.927 82.043 96.4754 82.043 95.0423 82.043C93.7581 82.043 92.6228 82.043 91.6178 82.0039H84.9178V69.8183H85.6064C85.6064 69.8183 85.6064 69.7987 85.6064 69.7792H114.398V69.8183H114.379Z"
    fill="#313F36" stroke="#AEA181" stroke-miterlimit="10" />
</svg>