<svg width="96" height="98" viewBox="0 0 96 98" fill="none" xmlns="http://www.w3.org/2000/svg">
  <path
    d="M65.39 86.8777C64.6828 86.8387 64.1059 86.7801 63.5475 86.7801C53.0694 86.7801 42.6099 86.7996 32.1318 86.7411C30.643 86.7411 30.1591 87.1316 30.1777 88.7525C30.2335 93.7908 27.0324 97.0911 22.2307 97.1301C20.0346 97.1301 17.8385 97.1692 15.6423 97.1301C11.1943 97.0325 8.0676 93.7712 7.93732 89.104C7.93732 88.9868 7.93732 88.8892 7.93732 88.772C8.21649 86.5067 7.62093 84.9054 5.66675 83.4212C2.48424 81.0192 1.06979 77.3675 1.03257 73.247C0.995347 67.3689 0.976736 61.4909 1.05118 55.6129C1.10701 50.2817 3.43341 46.2393 7.84426 43.642C8.81204 43.0562 9.27732 42.3532 9.55649 41.2986C11.0454 35.8112 12.5715 30.3237 14.0976 24.8363C15.8285 18.6262 20.6674 14.7011 26.8649 14.6229C32.7832 14.5644 38.7016 14.5644 44.6013 14.6229C45.7925 14.6229 46.4625 14.2324 47.1138 13.1778C54.428 1.59755 67.9212 -2.5034 80.0184 3.10123C91.5201 8.43246 97.7735 22.0242 94.4793 35.1472C93.6046 38.6428 91.7993 41.865 90.4035 45.2629C91.2782 46.6494 92.5996 48.2507 93.3812 50.1254C94.0885 51.8439 94.4607 53.8163 94.4979 55.691C94.6468 61.4519 94.5724 67.2322 94.5537 72.9931C94.5537 77.7971 92.6368 81.6051 88.9146 84.3391C87.9654 85.0421 87.6118 85.7451 87.6676 86.8973C87.7234 88.1471 87.7048 89.436 87.4815 90.6662C86.8115 94.4352 84.0012 96.9739 80.3534 97.1106C77.7851 97.2082 75.2167 97.2082 72.667 97.1106C68.5353 96.9544 65.4645 93.5174 65.39 89.1626C65.39 88.4595 65.39 87.7565 65.39 86.8973V86.8777ZM44.4524 18.4895C43.6522 18.4895 43.1311 18.4895 42.6286 18.4895C37.6035 18.4895 32.5785 18.4895 27.5535 18.4895C22.3796 18.4895 19.0854 21.0868 17.6337 26.3204C15.9587 32.3156 14.3396 38.3499 12.5901 44.3255C12.3482 45.1457 11.6409 46.1026 10.9151 46.4346C6.80203 48.3484 4.82925 51.6096 4.82925 56.2573C4.82925 61.6471 4.82925 67.0174 4.84786 72.4073C4.84786 76.7035 6.59731 79.9061 10.3195 81.8004C11.4176 82.3472 11.8643 83.1674 11.8457 84.3976C11.8084 85.999 11.8084 87.5808 11.8643 89.1821C11.9573 91.4474 13.3159 92.8339 15.4748 92.8925C17.5593 92.951 19.681 92.7753 21.7468 92.9511C25.376 93.244 27.0138 90.2561 26.0646 86.7215C24.7618 86.7215 23.4218 86.7606 22.0632 86.7215C20.9093 86.6825 20.1463 86.0185 20.109 84.7882C20.0532 83.4603 20.8535 82.8159 22.0446 82.6596C22.3982 82.6206 22.7704 82.6596 23.1426 82.6596C39.5391 82.6596 55.9169 82.6596 72.3134 82.6596C72.6298 82.6596 72.9462 82.6596 73.2626 82.6596C74.5095 82.7182 75.4401 83.2455 75.4587 84.6906C75.4587 86.1161 74.584 86.7215 73.2998 86.7606C72.3134 86.7801 71.3084 86.7215 70.322 86.8192C69.9498 86.8582 69.3728 87.1511 69.2798 87.4636C68.4609 90.0999 70.322 92.8534 72.9648 92.9315C75.3098 93.0096 77.6734 92.9901 80.037 92.9315C82.3448 92.8729 83.6848 91.4083 83.7593 88.9673C83.7965 87.6003 83.8337 86.2138 83.7593 84.8468C83.6662 83.265 84.2245 82.3277 85.6018 81.6246C88.9518 79.8866 90.664 76.9183 90.7198 73.0322C90.7943 67.2127 90.7571 61.3933 90.7385 55.5543C90.7385 53.289 89.9754 51.2776 88.654 49.4615C87.8351 48.3288 87.2396 48.1335 86.067 49.1881C75.4773 58.7765 59.4344 57.7805 49.9055 47.0009C49.1425 46.1417 48.398 45.8683 47.3372 45.8683C38.5341 45.9073 29.7496 45.8878 20.9465 45.8683C20.4254 45.8683 19.774 46.044 19.4018 45.7901C18.7318 45.341 17.8199 44.638 17.7826 43.9935C17.764 43.3296 18.5643 42.4899 19.1971 42.0017C19.5693 41.7087 20.3138 41.865 20.8907 41.865C28.6329 41.865 36.3938 41.865 44.1361 41.865C44.7316 41.865 45.3458 41.865 46.2019 41.865C42.4052 34.2489 41.8655 26.6329 44.4338 18.47L44.4524 18.4895ZM67.1395 40.7909C66.73 40.7323 66.3764 40.6347 66.0228 40.6151C60.3836 40.166 56.5869 35.9283 56.5311 30.0113C56.5311 28.3123 56.5311 26.6133 56.5311 24.8948C56.5311 22.2585 57.685 20.3447 60.0114 19.3683C60.8675 18.9973 61.0722 18.5091 61.0536 17.6498C61.0164 16.0095 61.035 14.3495 61.0536 12.7092C61.0722 11.4398 61.6864 10.5415 62.9334 10.561C64.1803 10.561 64.7572 11.4594 64.7572 12.7677C64.7572 14.3691 64.8131 15.9509 64.7572 17.5522C64.72 18.6262 65.0736 19.0168 66.0973 18.9973C67.977 18.9387 69.8753 18.9387 71.7551 18.9973C72.8159 19.0363 73.1137 18.5872 73.0764 17.5522C73.0206 15.9704 73.0764 14.3691 73.0764 12.7677C73.0764 11.4789 73.6162 10.5806 74.9003 10.5806C76.1659 10.5806 76.7429 11.4594 76.7429 12.7482C76.7429 14.3495 76.7801 15.9313 76.7429 17.5327C76.7056 18.47 76.9103 18.9582 77.8967 19.2707C80.3348 20.0518 81.6562 22.0242 81.712 24.6996C81.7493 26.6133 81.7493 28.5466 81.712 30.4604C81.6004 35.9479 77.6362 40.2441 72.4437 40.6347C71.997 40.6737 71.5503 40.7518 71.1781 40.7909V51.5705C81.284 51.0823 91.911 41.4939 91.6504 27.5702C91.3898 14.2714 80.6326 3.98 67.8281 4.58538C55.675 5.17123 45.7925 16.7711 46.6486 29.5035C47.5977 43.7006 59.0995 51.551 67.1581 51.4924V40.8104L67.1395 40.7909ZM69.1123 36.7681C69.1123 36.7681 69.1123 36.7095 69.1123 36.6899C70.0056 36.6899 70.8989 36.729 71.7737 36.6899C75.4401 36.4947 77.8595 33.8388 77.9154 29.9722C77.934 28.3318 77.9154 26.6719 77.9154 25.0315C77.9154 23.7036 77.3384 22.9615 76.017 22.9615C71.4201 22.9615 66.8045 22.9615 62.2075 22.9615C60.9047 22.9615 60.3092 23.6841 60.3092 25.012C60.3092 26.8281 60.2719 28.6443 60.3092 30.4409C60.4022 33.5849 62.5053 36.0846 65.4831 36.5337C66.6742 36.7095 67.8839 36.6899 69.0751 36.7485L69.1123 36.7681Z"
    fill="#313F36" stroke="#AEA181" stroke-miterlimit="10" />
  <path
    d="M23.2916 76.313C20.6488 76.1177 18.7132 76.0396 16.7962 75.8052C11.7526 75.1803 8.43983 70.7474 9.25872 65.7872C9.91011 61.9011 12.981 59.4405 16.9265 59.9482C22.4354 60.6708 27.1627 63.0923 30.5871 67.7986C31.3874 68.9117 32.0202 70.2396 32.3924 71.5871C32.9508 73.618 32.0574 75.1022 30.066 75.4537C27.6093 75.9029 25.0968 76.0981 23.2916 76.313ZM28.298 71.7433C26.3438 67.4276 19.6065 63.4243 15.5307 63.9515C14.0232 64.1468 13.2043 65.1037 12.981 66.6464C12.6832 68.736 13.8743 70.8645 15.996 71.4113C19.9788 72.4659 24.036 72.2315 28.2793 71.7433H28.298Z"
    fill="#313F36" stroke="#AEA181" stroke-miterlimit="10" />
  <path
    d="M72.3134 76.313C70.5081 76.0982 68.0514 75.9225 65.632 75.4733C63.4731 75.0827 62.6542 73.5595 63.2497 71.3333C63.9384 68.7556 65.5203 66.7832 67.4 65.0647C70.5826 62.1745 74.3048 60.5341 78.4365 59.9483C81.9168 59.4406 84.9132 61.2567 86.0112 64.4203C87.2582 67.994 85.9554 72.2511 82.8287 74.243C81.619 75.0242 80.1487 75.5124 78.7342 75.7662C76.8359 76.1177 74.8817 76.1177 72.2948 76.313H72.3134ZM67.065 71.7239C71.5503 72.2316 75.682 72.5441 79.6834 71.3333C80.7815 71.0013 81.9168 69.6343 82.4007 68.4626C83.4057 66.0607 81.8795 63.7758 79.4973 63.9907C74.3792 64.4203 70.2662 66.8418 67.065 71.7434V71.7239Z"
    fill="#313F36" stroke="#AEA181" stroke-miterlimit="10" />
</svg>