<svg width="182" height="48" viewBox="0 0 182 48" fill="none" xmlns="http://www.w3.org/2000/svg">
  <path
    d="M32.6227 16.7476L33.4167 17.0256L33.3728 16.7562H34.0349H34.6194L34.5288 16.1787C34.2786 14.5833 33.7604 12.9365 32.9611 11.2392L32.9601 11.2371C32.1562 9.55014 31.0852 7.96549 29.7301 6.50363C28.3634 5.02917 26.7288 3.83972 24.8125 2.93488L24.8125 2.93486L24.8086 2.93305C22.8732 2.03954 20.6599 1.57861 18.1595 1.57861C15.5364 1.57861 13.1141 2.14161 10.9376 3.23296C8.76351 4.3231 6.88135 5.89662 5.32996 7.9264C3.781 9.953 2.58316 12.372 1.74933 15.1558C0.914321 17.9436 0.500015 21.0393 0.500015 24.419C0.500015 28.9064 1.23482 32.8604 2.67948 36.291C4.12527 39.7243 6.20772 42.4179 8.87689 44.3522C11.5578 46.295 14.7153 47.2594 18.327 47.2594C21.5211 47.2594 24.3682 46.4755 26.8729 44.9188C29.3807 43.3602 31.3396 41.1171 32.7536 38.2099C34.1123 35.4164 34.8104 32.1072 34.8662 28.2974H34.937L34.8671 28.2339C34.8689 28.0891 34.8698 27.9436 34.8698 27.7974V26.4304V25.9304H34.3698H18.7365H18.2365V26.4304V27.7974V28.2974H18.7365H32.5845C32.5266 31.6139 31.9264 34.447 30.827 36.8234C29.5974 39.4606 27.9078 41.4347 25.7619 42.8236C23.6155 44.1933 21.1424 44.8924 18.3456 44.8924C15.1654 44.8924 12.4436 44.0414 10.1378 42.3347C7.81915 40.6185 6.01052 38.2354 4.73789 35.145L4.73649 35.1416C3.44594 32.071 2.80276 28.546 2.80276 24.3995C2.80276 20.2534 3.46443 16.6502 4.75512 13.5792C6.04618 10.5073 7.85475 8.14314 10.1547 6.44601C12.4451 4.77533 15.1315 3.92607 18.1967 3.92607C20.2783 3.92607 22.1029 4.28663 23.7195 5.03227C25.3655 5.79145 26.7826 6.75368 27.9619 7.97235C29.1584 9.20879 30.1319 10.5536 30.8509 12.006C31.5764 13.4714 32.0615 14.9276 32.2944 16.3562L32.6396 16.2999L32.5668 16.7281L32.6227 16.7476Z"
    fill="#313F36" stroke="#313F36" />
  <path
    d="M45.0179 46.1737V46.2869L45.0667 46.389L45.0853 46.428L45.2212 46.7127H45.5366H68.205H68.705V46.2127V44.8457V44.3457H68.205H47.3207V25.6221H66.4183H66.9183V25.1221V23.7551V23.2551H66.4183H47.3207V4.53153H67.628H68.128V4.03153V2.66455V2.16455H67.628H45.5179H45.0179V2.66455V46.1737Z"
    fill="#313F36" stroke="#313F36" />
  <path
    d="M100.979 14.0417H101.515H102.263H102.798L102.762 13.5086C102.609 11.1957 102.013 9.12301 100.904 7.30557C99.797 5.49268 98.3002 4.06553 96.4396 3.02837C94.5656 1.98372 92.3755 1.48096 89.9428 1.48096C87.5093 1.48096 85.3052 1.98401 83.3809 3.00378C81.4674 4.01779 79.9291 5.40386 78.818 7.18297C77.7036 8.94768 77.1408 10.9744 77.1408 13.1902C77.1408 15.826 77.9824 18.0965 79.6907 19.9713C81.3867 21.8327 83.8922 23.2955 87.1993 24.3861L87.2014 24.3868L91.8914 25.91L91.8931 25.9106C94.1159 26.6238 95.8782 27.4272 97.2273 28.2953C98.5494 29.1579 99.5098 30.1558 100.114 31.243C100.717 32.3271 101.019 33.6072 101.019 35.101C101.019 37.0655 100.539 38.7679 99.6073 40.2434C98.6755 41.7191 97.354 42.8705 95.6417 43.7129C93.9183 44.5517 91.819 44.9706 89.6078 44.9706C87.3972 44.9706 85.4811 44.5713 83.8659 43.8077C82.2478 43.0428 80.9775 41.9664 80.0434 40.6164C79.1121 39.2704 78.5805 37.7178 78.456 35.9256L78.4237 35.4602H77.9572H76.6544H76.1183L76.1557 35.9951C76.3101 38.2024 76.9491 40.1627 78.1001 41.8821C79.2512 43.6017 80.81 44.9268 82.7795 45.8993L82.7832 45.9011C84.7588 46.8563 86.938 47.3375 89.6264 47.3375C92.3131 47.3375 94.6828 46.8374 96.7574 45.7797C98.8042 44.7462 100.44 43.2996 101.591 41.4372C102.741 39.576 103.322 37.4725 103.322 35.1205C103.322 33.7175 103.089 32.4274 102.657 31.2739L102.657 31.2739L102.655 31.267C102.202 30.1116 101.534 29.0607 100.634 28.1164C99.7363 27.1744 98.5953 26.325 97.2576 25.5831C95.9187 24.8405 94.3239 24.1845 92.5181 23.5924L92.5167 23.5919L87.8267 22.0687L87.8241 22.0679C86.3781 21.607 85.1091 21.073 84.0484 20.4694C82.9823 19.8626 82.1144 19.2088 81.4317 18.4741C80.7662 17.7575 80.2621 16.9533 79.9325 16.0797C79.6032 15.2068 79.4436 14.2523 79.4436 13.1902C79.4436 11.3853 79.9034 9.78089 80.7979 8.38224C81.6937 6.98157 82.944 5.88643 84.5308 5.06272C86.1291 4.26208 87.93 3.84793 89.9614 3.84793C93.0556 3.84793 95.51 4.76906 97.3742 6.57748C99.25 8.39723 100.283 10.7187 100.48 13.5761L100.961 13.543V14.0417H100.979Z"
    fill="#313F36" stroke="#313F36" />
  <path
    d="M135.894 14.0417H136.429H137.178H137.712L137.677 13.5086C137.524 11.1957 136.927 9.12301 135.818 7.30557C134.712 5.49267 133.215 4.06552 131.354 3.02837C129.48 1.98372 127.29 1.48096 124.857 1.48096C122.424 1.48096 120.22 1.98401 118.295 3.00378C116.382 4.01779 114.844 5.40386 113.733 7.18297C112.618 8.94767 112.055 10.9744 112.055 13.1902C112.055 15.826 112.897 18.0965 114.605 19.9713C116.301 21.8327 118.807 23.2955 122.114 24.3861L122.116 24.3868L126.806 25.91L126.808 25.9106C129.031 26.6238 130.793 27.4272 132.142 28.2953C133.464 29.1579 134.424 30.1558 135.029 31.243C135.631 32.3271 135.934 33.6072 135.934 35.101C135.934 37.0655 135.453 38.7679 134.522 40.2434C133.59 41.7191 132.269 42.8705 130.556 43.7129C128.833 44.5517 126.734 44.9706 124.522 44.9706C122.312 44.9706 120.396 44.5713 118.78 43.8077C117.162 43.0428 115.892 41.9664 114.958 40.6164C114.027 39.2704 113.495 37.7178 113.371 35.9256L113.338 35.4602H112.872H111.569H111.033L111.07 35.9951C111.225 38.2024 111.864 40.1627 113.015 41.8821C114.166 43.6017 115.725 44.9268 117.694 45.8993L117.698 45.9011C119.673 46.8563 121.853 47.3375 124.541 47.3375C127.228 47.3375 129.597 46.8374 131.672 45.7797C133.719 44.7462 135.354 43.2996 136.505 41.4372C137.655 39.576 138.236 37.4725 138.236 35.1205C138.236 33.7175 138.004 32.4274 137.572 31.2739L137.572 31.2739L137.569 31.267C137.117 30.1116 136.448 29.0607 135.549 28.1164C134.651 27.1744 133.51 26.325 132.172 25.5831C130.833 24.8405 129.238 24.1845 127.433 23.5924L127.431 23.5919L122.741 22.0687L122.739 22.0679C121.293 21.607 120.024 21.073 118.963 20.4694C117.897 19.8626 117.029 19.2088 116.346 18.4741C115.681 17.7575 115.177 16.9533 114.847 16.0797C114.518 15.2068 114.358 14.2523 114.358 13.1902C114.358 11.3852 114.818 9.78088 115.712 8.38224C116.608 6.98158 117.859 5.88643 119.445 5.06272C121.044 4.26208 122.845 3.84793 124.876 3.84793C127.97 3.84793 130.425 4.76906 132.289 6.57748C134.165 8.39723 135.198 10.7187 135.395 13.5761L135.875 13.543V14.0417H135.894Z"
    fill="#313F36" stroke="#313F36" />
  <path
    d="M181.098 24.419V24.2189L181.079 24.1989C181.058 19.7964 180.342 15.9072 178.88 12.5242C177.416 9.09469 175.354 6.40122 172.684 4.46627C170.006 2.52587 166.924 1.55908 163.42 1.55908C159.913 1.55908 156.832 2.54661 154.156 4.48582L154.156 4.4858L154.152 4.48829C151.504 6.44181 149.442 9.13319 147.961 12.5417L147.961 12.5417L147.959 12.5448C146.495 15.9768 145.76 19.9514 145.76 24.419C145.76 28.887 146.495 32.8419 147.959 36.2736L147.961 36.2768C149.441 39.6818 151.483 42.3953 154.154 44.3317C156.833 46.293 159.935 47.2594 163.438 47.2594C166.942 47.2594 170.043 46.2931 172.704 44.3512C175.354 42.4164 177.416 39.7236 178.898 36.2953L178.899 36.2932C180.363 32.8613 181.098 28.9063 181.098 24.419ZM178.795 24.419V24.6191L178.832 24.6576C178.811 28.6834 178.168 32.2182 176.881 35.237C175.57 38.3124 173.76 40.6963 171.461 42.3928C169.17 44.083 166.539 44.9315 163.457 44.9315C160.376 44.9315 157.709 44.0642 155.418 42.3553C153.118 40.6393 151.308 38.2358 150.015 35.1611L150.015 35.1598C148.706 32.07 148.063 28.565 148.063 24.419C148.063 20.2728 148.725 16.6707 150.033 13.6011C151.343 10.5274 153.152 8.16266 155.452 6.46551C157.744 4.79348 160.376 3.94558 163.42 3.94558C166.465 3.94558 169.114 4.79403 171.405 6.48426C173.704 8.18069 175.514 10.5645 176.825 13.6399C178.134 16.7302 178.795 20.3132 178.795 24.419Z"
    fill="#313F36" stroke="#313F36" />
</svg>