<svg width="111" height="51" viewBox="0 0 111 51" fill="none" xmlns="http://www.w3.org/2000/svg">
  <path
    d="M3.84751 50.028C2.28417 50.028 1 48.7001 1 47.0402V2.12504C1 1.36343 1.59554 0.738525 2.32138 0.738525H2.52607C3.25191 0.738525 3.84751 1.36343 3.84751 2.12504V47.2355H25.4551C26.1809 47.2355 26.7765 47.8604 26.7765 48.622C26.7765 49.3836 26.1809 50.0085 25.4551 50.0085H3.82888L3.84751 50.028Z"
    fill="#313F36" stroke="#313F36" stroke-width="0.5" stroke-miterlimit="10" />
  <path
    d="M37.3477 50.028V3.72636C37.3477 2.08598 38.6132 0.738525 40.1952 0.738525H62.175C62.9008 0.738525 63.4963 1.36343 63.4963 2.12504C63.4963 2.88664 62.9008 3.51155 62.175 3.51155H40.2137V23.9382H60.7605C61.4863 23.9382 62.0819 24.5631 62.0819 25.3247C62.0819 26.1058 61.4863 26.7307 60.7605 26.7307H40.2137V47.216H62.7147C63.4405 47.216 64.0361 47.8409 64.0361 48.6025C64.0361 49.3641 63.4405 49.989 62.7147 49.989H37.3477V50.028Z"
    fill="#313F36" stroke="#313F36" stroke-width="0.5" stroke-miterlimit="10" />
  <path
    d="M88.3794 50.028H75.3516V3.72636C75.3516 2.08598 76.6171 0.738525 78.1991 0.738525H89.3844C93.7953 0.738525 97.5547 1.71494 100.7 3.66777C103.827 5.62061 106.246 8.43269 107.921 12.0845C109.596 15.7363 110.434 20.1106 110.415 25.2075C110.415 30.4216 109.522 34.874 107.791 38.5844C106.06 42.2753 103.566 45.1069 100.291 47.0793C97.015 49.0516 93.0508 50.028 88.3794 50.028ZM78.2177 47.2355H88.2677C92.4552 47.2355 95.9914 46.3567 98.8575 44.5992C101.724 42.8416 103.901 40.3224 105.39 37.0222C106.86 33.7414 107.605 29.7967 107.586 25.2075C107.586 20.677 106.879 16.8103 105.446 13.5686C104.031 10.3269 101.947 7.84684 99.2483 6.12834C96.5311 4.39032 93.2183 3.53108 89.2727 3.53108H78.2177V47.2355Z"
    fill="#313F36" stroke="#313F36" stroke-width="0.5" stroke-miterlimit="10" />
</svg>