<svg width="358" height="88" viewBox="0 0 358 88" fill="none" xmlns="http://www.w3.org/2000/svg"
  class="w-[230px] lg:w-[300px] object-contain">
  <g clip-path="url(#clip0_39_10)">
    <path fill-rule="evenodd" clip-rule="evenodd"
      d="M28.7955 0C32.9602 0 36.9265 0.894511 40.516 2.48475L36.1134 9.91913C33.8526 9.0445 31.3935 8.56743 28.8154 8.56743C17.5907 8.56743 8.48798 17.6914 8.48798 28.9424C8.48798 30.5128 8.66646 32.0434 9.0036 33.5143H24.7301V30.9898H32.861V41.6445C22.8659 41.6445 12.8906 41.6445 2.89547 41.6445C-6.20723 23.0784 7.27825 0 28.7955 0Z"
      fill="#313F36"></path>
    <path fill-rule="evenodd" clip-rule="evenodd"
      d="M28.7558 57.8451C24.5912 57.8451 20.6249 56.9506 17.0353 55.3604L21.438 47.926C23.6988 48.8006 26.1579 49.2777 28.736 49.2777C39.9607 49.2777 49.0634 40.1537 49.0634 28.9027C49.0634 27.3324 48.8849 25.8018 48.5477 24.3308H32.8213V26.8553H24.6903V16.2007C34.6855 16.2007 44.6608 16.2007 54.6559 16.2007C63.7189 34.7469 50.2334 57.8253 28.736 57.8253L28.7558 57.8451Z"
      fill="#313F36"></path>
    <path fill-rule="evenodd" clip-rule="evenodd"
      d="M101.26 28.9822C101.26 26.2191 102.053 22.7802 103.858 20.4942C108.538 14.7296 118.752 15.5446 124.84 18.2679H125.871V11.6883C116.411 8.80596 103.739 8.2295 96.9567 16.8764C94.0414 20.4744 92.8317 24.7283 92.8317 28.9225C92.8317 33.7926 94.4182 38.6826 98.0474 42.3402C102.172 46.4748 107.805 48.0651 114.052 48.0651C118.791 48.0054 123.333 47.3693 127.993 46.2562V27.5907H112.227V33.9517H119.803V41.1077C111.255 43.3937 101.24 39.3784 101.24 28.9623L101.26 28.9822ZM210.79 10.9528V17.4131H230.245L209.322 41.6047V48.0651H239.823V41.6047H219.357L238.852 19.0233C239.942 17.2144 240.121 15.5247 239.328 13.8749C238.296 11.8075 235.5 10.9528 233.14 10.9528H210.77H210.79ZM337.375 19.222L343.067 33.1168H331.664L337.355 19.222H337.375ZM358 48.0651L343.146 13.8152C342.293 11.8473 340.112 10.5353 337.573 10.5353C335.035 10.5353 332.774 11.8075 331.941 13.8152L320.042 41.6047H301.143C300.112 41.6047 299.259 40.8096 299.259 39.9151V10.9528H291.068V40.8096C291.068 44.7852 294.836 48.0651 299.437 48.0651H325.437V47.9458L329.086 39.4181H345.704L349.334 48.0651H358ZM243.274 28.9225C243.274 40.5313 251.643 48.0651 263.344 48.0651C275.044 48.0651 283.473 40.5313 283.473 28.9225C283.473 17.3138 275.044 9.77998 263.344 9.77998C251.643 9.77998 243.274 17.3138 243.274 28.9225ZM251.703 28.9225C251.703 21.1303 256.244 16.2403 263.344 16.2403C270.443 16.2403 275.044 21.9056 275.044 28.9225C275.044 36.7147 270.443 41.5451 263.344 41.5451C256.244 41.5451 251.703 36.7147 251.703 28.9225ZM176.561 10.9528V17.4131H196.015L175.093 41.6047V48.0651H205.594V41.6047H185.128L204.622 19.0233C205.713 17.2144 205.892 15.5247 205.098 13.8749C204.067 11.8075 201.271 10.9528 198.911 10.9528H176.541H176.561ZM151.771 19.222L157.463 33.1168H146.06L151.751 19.222H151.771ZM131.642 48.0651H139.773L143.482 39.4181H160.1L163.73 48.0651H172.396L157.542 13.8152C156.689 11.8473 154.508 10.5353 151.97 10.5353C149.431 10.5353 147.17 11.8075 146.337 13.8152L131.662 48.0651H131.642Z"
      fill="#313F36"></path>
  </g>
</svg>