<svg width="30" height="30" viewBox="0 0 30 30" fill="none" xmlns="http://www.w3.org/2000/svg">
  <path
    d="M15 2.66177C19.0052 2.66177 19.4795 2.67679 21.0612 2.74786C22.5237 2.81359 23.318 3.05425 23.8466 3.2565C24.5467 3.52448 25.0464 3.84465 25.5713 4.36156C26.0961 4.87847 26.4213 5.37063 26.6933 6.06012C26.8987 6.58072 27.1431 7.36292 27.2098 8.80317C27.282 10.3609 27.2972 10.8281 27.2972 14.7726C27.2972 18.717 27.282 19.1842 27.2098 20.7419C27.1431 22.1822 26.8987 22.9644 26.6933 23.485C26.4213 24.1745 26.0961 24.6667 25.5713 25.1836C25.0464 25.7005 24.5467 26.0207 23.8466 26.2886C23.318 26.4909 22.5237 26.7316 21.0612 26.7973C19.4798 26.8684 19.0054 26.8834 15 26.8834C10.9945 26.8834 10.5202 26.8684 8.93871 26.7973C7.47623 26.7316 6.68199 26.4909 6.15343 26.2886C5.45327 26.0207 4.95353 25.7005 4.42866 25.1836C3.90379 24.6667 3.57869 24.1745 3.30664 23.485C3.10122 22.9644 2.85685 22.1822 2.79011 20.742C2.71794 19.1842 2.7027 18.717 2.7027 14.7726C2.7027 10.8281 2.71794 10.3609 2.79011 8.80323C2.85685 7.36292 3.10122 6.58072 3.30664 6.06012C3.57869 5.37063 3.90379 4.87847 4.42866 4.36156C4.95353 3.84465 5.45327 3.52448 6.15343 3.2565C6.68199 3.05425 7.47623 2.81359 8.93865 2.74786C10.5204 2.67679 10.9948 2.66177 15 2.66177ZM15 0C10.9262 0 10.4154 0.0170055 8.81552 0.0888978C7.21888 0.160673 6.12854 0.410361 5.17437 0.775569C4.18799 1.15309 3.35147 1.65821 2.51758 2.47946C1.68369 3.30071 1.17079 4.12454 0.787451 5.09597C0.41662 6.03567 0.163087 7.10948 0.090207 8.6819C0.0172078 10.2575 0 10.7606 0 14.7726C0 18.7846 0.0172078 19.2877 0.090207 20.8632C0.163087 22.4357 0.41662 23.5095 0.787451 24.4492C1.17079 25.4205 1.68369 26.2444 2.51758 27.0657C3.35147 27.8869 4.18799 28.3921 5.17437 28.7696C6.12854 29.1348 7.21888 29.3845 8.81552 29.4562C10.4154 29.5281 10.9262 29.5451 15 29.5451C19.0738 29.5451 19.5846 29.5281 21.1844 29.4562C22.7811 29.3845 23.8714 29.1348 24.8256 28.7696C25.812 28.3921 26.6485 27.8869 27.4824 27.0657C28.3163 26.2444 28.8292 25.4206 29.2125 24.4492C29.5833 23.5095 29.8369 22.4357 29.9097 20.8632C29.9827 19.2877 30 18.7846 30 14.7726C30 10.7606 29.9827 10.2575 29.9097 8.6819C29.8369 7.10948 29.5833 6.03567 29.2125 5.09597C28.8292 4.12454 28.3163 3.30071 27.4824 2.47946C26.6485 1.65821 25.812 1.15309 24.8256 0.775569C23.8714 0.410361 22.7811 0.160673 21.1844 0.0888978C19.5846 0.0170055 19.0738 0 15 0ZM15 7.18665C10.7459 7.18665 7.29724 10.583 7.29724 14.7726C7.29724 18.9621 10.7459 22.3585 15 22.3585C19.2541 22.3585 22.7027 18.9621 22.7027 14.7726C22.7027 10.583 19.2541 7.18665 15 7.18665ZM15 19.6968C12.2386 19.6968 9.99994 17.4921 9.99994 14.7726C9.99994 12.053 12.2386 9.84836 15 9.84836C17.7614 9.84836 20 12.053 20 14.7726C20 17.4921 17.7614 19.6968 15 19.6968ZM24.807 6.88694C24.807 7.86599 24.0011 8.65968 23.007 8.65968C22.0129 8.65968 21.207 7.86599 21.207 6.88694C21.207 5.90789 22.0129 5.11426 23.007 5.11426C24.0011 5.11426 24.807 5.90789 24.807 6.88694Z"
    fill="#313F36" />
</svg>