<svg width="25" height="30" viewBox="0 0 25 30" fill="none" xmlns="http://www.w3.org/2000/svg">
  <path
    d="M13.3333 0V12.4772V20.5174C13.3333 22.7837 11.4679 24.6209 9.16667 24.6209C6.86548 24.6209 5 22.7837 5 20.5174C5 18.2511 6.86548 16.4139 9.16667 16.4139C9.44658 16.4141 9.72577 16.442 10 16.4973V11.5346C9.72306 11.5072 9.44499 11.4922 9.16667 11.4898C4.10406 11.4898 0 15.5316 0 20.5174C0 25.5033 4.10406 29.5451 9.16667 29.5451C14.2293 29.5451 18.3333 25.5033 18.3333 20.5174V10.0311C20.3069 11.3576 22.4328 12.3105 25 12.3105V8.15247V7.07851C23.6564 7.07931 22.5944 6.70585 21.4551 6.00455V6.00783C19.9365 5.07476 18.8132 3.59213 18.3333 1.84977L18 0H13.3333Z"
    fill="#313F36" />
</svg>