<svg width="269" height="36" viewBox="0 0 269 36" fill="none" xmlns="http://www.w3.org/2000/svg">
<g clip-path="url(#clip0_2_229)">
<path d="M26.184 35.7634C25.8863 35.7634 25.6035 35.6155 25.4397 35.364C21.4206 29.2112 24.9634 15.8998 25.5588 13.7699L24.7401 12.6163L24.6508 12.5128C23.7427 13.4889 21.6736 15.6631 19.4556 17.7486C13.8586 22.9844 12.0723 23.1619 11.209 22.8365C10.7773 22.6738 10.2563 22.2153 10.2563 21.0321C10.2563 18.7395 13.0994 15.0271 15.764 12.498C6.43063 11.3295 0 7.08465 0 4.80692C0 4.40758 0.163743 4.03781 0.491229 3.72722C1.8756 2.38128 6.31155 2.48482 6.81766 2.49961C17.1484 2.49961 22.9836 8.54891 24.6805 10.6196L25.4844 9.34759C23.5046 7.0107 22.5519 4.9992 22.671 3.40182C22.7305 2.49961 23.1324 1.7305 23.8321 1.12409C25.1718 -0.029564 27.2111 -0.029564 28.5508 1.12409C29.2505 1.7305 29.6375 2.49961 29.7119 3.40182C29.831 5.01399 28.8783 7.0107 26.8985 9.34759L27.7023 10.6196C29.3993 8.54891 35.2345 2.49961 45.5801 2.49961C46.0564 2.49961 50.4924 2.39607 51.8768 3.72722C52.1894 4.03781 52.368 4.40758 52.368 4.80692C52.368 7.08465 45.9225 11.3295 36.6189 12.4832C39.2537 14.9976 42.0968 18.71 42.1415 21.0025C42.1713 22.2005 41.6503 22.659 41.2186 22.8217C40.3701 23.1471 38.5987 22.9844 32.9719 17.7486C30.739 15.6631 28.655 13.4889 27.7321 12.5128L27.6428 12.6311L26.8241 13.7699C27.4344 15.8998 30.9623 29.1964 26.9432 35.364C26.7794 35.6155 26.4966 35.7634 26.1989 35.7634H26.184ZM26.184 15.9294C25.1867 20.1298 23.4004 29.5662 26.184 34.3879C28.9676 29.5514 27.1813 20.1298 26.184 15.9294ZM28.402 11.5662C33.3738 16.9499 39.4323 22.3188 40.7869 21.7716C40.9209 21.7124 40.9953 21.4462 40.9953 21.0321C40.9506 19.0058 37.7651 14.9828 35.1154 12.6459C34.2967 12.7198 33.4631 12.7642 32.6146 12.779C31.9299 12.779 31.2898 12.4832 30.9028 11.9507C30.6795 11.6549 30.6051 11.2851 30.6795 10.9302C30.7539 10.5752 30.9921 10.2646 31.3196 10.0871C31.9894 9.73215 32.7933 9.71735 33.478 10.0575C34.0437 10.3386 34.7433 10.8414 35.5173 11.4774C45.4015 10.5308 51.2516 6.03453 51.2516 4.80692C51.2516 4.74776 51.2367 4.65901 51.1176 4.54069C50.3286 3.78638 47.3366 3.57931 45.6248 3.62368C35.4131 3.62368 29.697 9.98358 28.4317 11.5662H28.402ZM17.2674 12.6459C14.6624 14.9532 11.3727 18.917 11.3727 21.0173C11.3727 21.2095 11.3876 21.6828 11.596 21.7568C12.9804 22.2893 19.0091 16.9351 23.9511 11.5662C22.6858 9.98358 16.9697 3.62368 6.77301 3.62368C5.04626 3.56452 2.05423 3.77159 1.26529 4.54069C1.1462 4.65901 1.13132 4.74776 1.13132 4.80692C1.13132 6.03453 6.98141 10.5308 16.8655 11.4774C17.6247 10.8414 18.3392 10.3386 18.9049 10.0575C19.5896 9.71735 20.3934 9.73215 21.0633 10.0871C21.3908 10.2646 21.6141 10.5604 21.7034 10.9302C21.7778 11.2851 21.7034 11.6549 21.4801 11.9507C21.0782 12.4832 20.4381 12.7938 19.7682 12.779C18.9198 12.7642 18.0862 12.7198 17.2823 12.6459H17.2674ZM25.3951 11.581L26.184 12.6754L26.9729 11.581L26.184 10.3533L25.3951 11.581ZM18.5774 11.5957C18.9793 11.6105 19.3812 11.6253 19.7831 11.6401C20.0808 11.6401 20.3786 11.507 20.5572 11.2704C20.587 11.226 20.587 11.1964 20.5721 11.1668C20.5721 11.1372 20.5572 11.1077 20.5125 11.0929C20.1702 10.9154 19.7534 10.9006 19.411 11.0781C19.1579 11.1964 18.8751 11.3887 18.5625 11.6105L18.5774 11.5957ZM32.4062 10.945C32.2127 10.945 32.0192 10.9893 31.8406 11.0929C31.7959 11.1077 31.781 11.152 31.781 11.1668C31.781 11.1964 31.781 11.226 31.7959 11.2704C31.9745 11.507 32.2723 11.6549 32.57 11.6401C32.9868 11.6401 33.3887 11.6105 33.7906 11.5957C33.478 11.3739 33.1952 11.1964 32.9272 11.0633C32.7635 10.9745 32.5849 10.945 32.3913 10.945H32.4062ZM26.184 1.37553C25.6035 1.37553 25.0378 1.5826 24.5763 1.98194C24.1 2.38128 23.8618 2.88416 23.8172 3.47578C23.7278 4.71818 24.5466 6.41908 26.1989 8.41579C27.8512 6.41908 28.6699 4.71818 28.5806 3.47578C28.5359 2.86937 28.2829 2.38128 27.8214 1.98194C27.36 1.5826 26.7794 1.37553 26.2138 1.37553H26.184Z" fill="#AEA181"/>
<path d="M60.2127 36C60.0639 36 59.915 35.9556 59.7811 35.8521C59.4833 35.6154 59.4536 35.1865 59.6917 34.9055C70.6476 21.5645 79.5046 0.621188 79.594 0.414122C79.7428 0.0739407 80.1298 -0.0887544 80.4871 0.0443598C80.8295 0.192264 80.9932 0.576817 80.8592 0.931788C80.7699 1.13885 71.8385 22.2596 60.7486 35.7486C60.6147 35.9112 60.4211 36 60.2276 36H60.2127Z" fill="#CFCDCA"/>
<path d="M97.6801 32.3172C97.3973 32.3172 97.1144 32.2876 96.8614 32.2432C96.0129 32.0657 95.3579 31.5924 94.9262 30.8529C92.1277 26.0312 97.8736 16.802 100.315 13.6664C101.759 11.8176 101.893 10.59 101.848 10.0131C101.833 9.82086 101.684 9.65816 101.491 9.64337C101.446 9.64337 101.402 9.64337 101.372 9.64337C98.6328 9.64337 92.738 16.7428 88.8231 21.461C86.5902 24.1528 84.6551 26.4749 83.36 27.5842C82.2585 28.516 81.023 29.3886 80.1894 28.7822C79.3409 28.161 79.7875 26.5637 80.3085 25.3213C80.3233 25.2769 80.3382 25.2473 80.368 25.2177C80.3978 25.1734 83.1367 21.0172 85.4887 16.5801C89.7162 8.59325 88.9273 6.86276 88.5849 6.52258C88.5403 6.47821 88.3914 6.3451 88.0044 6.3451C84.67 6.35989 75.5301 14.9384 72.285 18.2366C72.0171 18.5029 71.5854 18.5029 71.3175 18.2366C71.0495 17.9704 71.0495 17.5415 71.3175 17.2753C72.553 16.0181 83.5089 4.99917 88.0044 4.98438H88.0193C88.6445 4.98438 89.1655 5.17665 89.5525 5.5612C90.4903 6.493 91.2048 8.69678 86.6944 17.2161C84.4616 21.4462 81.8715 25.41 81.544 25.9129C81.2909 26.5045 81.1123 27.1701 81.0825 27.5546C81.3207 27.4363 81.7524 27.1849 82.4818 26.5637C83.6875 25.5283 85.578 23.2506 87.7811 20.6031C93.7056 13.4741 98.4839 8.046 101.625 8.29744C102.473 8.37139 103.143 9.03696 103.218 9.89481C103.292 10.8266 103.039 12.3796 101.416 14.4799C98.7221 17.9408 93.8991 26.327 96.132 30.1725C96.3702 30.5867 96.6976 30.8233 97.174 30.9269C98.8561 31.2818 101.982 29.8767 106.001 26.963C107.43 25.9277 108.83 24.6853 110.154 23.2506C112.566 20.6623 114.322 19.7748 115.528 20.5292C115.841 20.7362 115.93 21.1504 115.736 21.461C115.528 21.7716 115.111 21.8603 114.799 21.668C114.516 21.4905 113.385 21.7716 111.152 24.1676C109.767 25.6614 108.309 26.963 106.805 28.0575C102.89 30.8973 99.8385 32.332 97.7099 32.332L97.6801 32.3172Z" fill="#CFCDCA"/>
<path d="M130.444 31.6664C129.759 31.6664 129.372 31.3854 129.163 31.1339C127.66 29.4182 129.506 25.3952 130.548 23.4281C130.265 23.3689 129.967 23.2802 129.699 23.1323C126.677 26.8003 122.152 31.5333 118.967 31.3558C117.91 31.2966 117.046 30.8529 116.496 30.0394C115.394 28.4421 115.632 25.7206 116.034 23.7239C115.379 24.3599 114.605 25.1142 113.816 25.8389C110.065 29.2555 108.77 29.6401 107.981 29.152C107.594 28.9154 107.356 28.5456 107.281 28.0871C107.073 26.6376 108.844 24.5818 109.202 24.1824C109.455 23.9014 109.886 23.8866 110.154 24.1232C110.437 24.3747 110.467 24.8036 110.214 25.0846C109.514 25.8537 108.532 27.2884 108.621 27.8948C108.621 27.9244 108.621 27.9392 108.636 27.9688C109.648 27.88 113.652 24.3303 116.823 21.0025C117.046 20.7658 117.389 20.7214 117.672 20.8841C117.94 21.0468 118.074 21.3722 117.969 21.6828C117.463 23.2062 116.421 27.5398 117.627 29.2851C117.954 29.7436 118.401 29.9803 119.056 30.0099C119.086 30.0099 119.13 30.0099 119.16 30.0099C121.676 30.0099 125.784 25.7502 128.791 22.097C128.464 21.1799 128.91 19.9967 130.131 18.4881C131.783 16.4766 132.408 16.0329 133.049 16.4322C133.599 16.7724 133.555 17.4971 132.915 18.9022C132.9 18.9318 132.885 18.9762 132.855 19.0057C132.602 19.3755 131.768 20.544 130.592 22.023C130.92 22.1265 131.337 22.1709 131.634 22.1561C131.887 22.1561 132.126 22.2744 132.245 22.4815C132.364 22.6886 132.379 22.9548 132.245 23.1767C130.905 25.4396 129.342 29.2408 130.205 30.2317C130.235 30.2613 130.339 30.2909 130.473 30.2909C132.721 30.2909 139.896 24.8036 143.424 20.8546C143.662 20.5735 144.079 20.544 144.362 20.7806C144.645 21.0173 144.689 21.4314 144.466 21.7124C143.35 23.1175 140.536 27.4807 142.159 29.0781C143.022 29.9359 147.25 28.7675 154.737 24.2268C155.481 23.7831 156.166 23.2358 156.762 22.6146C158.384 20.9285 159.694 20.0559 160.662 20.0559C161.078 20.0559 161.451 20.2038 161.748 20.4848C162.016 20.751 162.016 21.1799 161.748 21.4462C161.48 21.7124 161.049 21.7124 160.781 21.4462C160.781 21.4462 160.751 21.4166 160.676 21.4166C160.245 21.4166 159.247 21.9934 157.744 23.5612C157.074 24.2712 156.3 24.8776 155.452 25.3952C147.651 30.1282 142.858 31.6812 141.206 30.0542C140.134 28.9893 140.03 27.3772 140.864 25.2473C137.306 28.3681 132.736 31.6516 130.488 31.6516L130.444 31.6664Z" fill="#CFCDCA"/>
<path d="M164.77 31.1783C163.937 31.1783 163.222 30.8381 162.731 30.2021C161.585 28.7379 161.763 25.8685 162.076 23.8422C159.694 26.1939 155.928 29.6549 154.38 29.6549C153.442 29.6549 153.1 29.1668 152.966 28.8858C152.37 27.5398 154.439 24.9663 155.734 23.5464C155.988 23.2654 156.419 23.2506 156.702 23.502C156.985 23.7535 157 24.1824 156.747 24.4634C155.377 25.972 154.201 27.7321 154.216 28.2941C154.246 28.2941 154.305 28.2941 154.395 28.2941C155.139 28.2941 158.518 25.6171 162.701 21.2835C162.909 21.0616 163.252 21.0172 163.52 21.1651C163.788 21.313 163.922 21.6236 163.847 21.9195C163.445 23.4872 162.641 27.88 163.817 29.3738C164.056 29.6844 164.368 29.8176 164.785 29.8176C167.673 29.8176 172.987 24.2268 174.803 22.0821C175.041 21.8011 175.473 21.7568 175.756 21.9934C176.039 22.2301 176.083 22.659 175.845 22.94C175.145 23.7831 168.834 31.1635 164.785 31.1635L164.77 31.1783Z" fill="#CFCDCA"/>
<path d="M196.283 23.7683C196.938 22.2449 198.308 21.6089 199.588 21.6089C201.597 21.6089 202.967 22.7921 202.967 25.0846V30.2909H202.163V25.41C202.163 23.3394 201.225 22.3632 199.424 22.3632C197.861 22.3632 196.462 23.7387 196.462 25.5284V30.2909H195.673V25.41C195.673 23.3394 194.72 22.3632 192.919 22.3632C191.356 22.3632 189.957 23.7387 189.957 25.4988V30.2909H189.153V21.7864H189.957V23.4429C190.701 22.1118 191.966 21.6089 193.083 21.6089C194.661 21.6089 195.837 22.3484 196.283 23.7683Z" fill="#CFCDCA"/>
<path d="M214.206 30.2761H213.417V28.3977C212.717 29.6401 211.303 30.4536 209.74 30.4536C207.358 30.4536 205.557 28.5308 205.557 26.0164C205.557 23.5021 207.358 21.5941 209.74 21.5941C211.303 21.5941 212.687 22.378 213.402 23.6056V21.7568H214.206V30.2613V30.2761ZM206.346 26.0164C206.346 28.1463 207.805 29.7288 209.799 29.7288C211.898 29.7288 213.461 28.1019 213.461 26.0164C213.461 23.931 211.898 22.3188 209.799 22.3188C207.701 22.3188 206.346 23.9162 206.346 26.0164Z" fill="#CFCDCA"/>
<path d="M225.563 29.9063C225.563 32.3024 223.941 34.0033 220.83 34.0033C219.669 34.0033 218.403 33.6335 217.719 33.2934L217.853 32.5834C218.82 33.0419 219.862 33.2786 220.86 33.2786C223.018 33.2786 224.775 32.1397 224.775 29.8176V28.4125C224.075 29.6549 222.661 30.4684 221.098 30.4684C218.716 30.4684 216.915 28.5456 216.915 26.0312C216.915 23.5169 218.716 21.6089 221.098 21.6089C222.661 21.6089 224.045 22.3928 224.76 23.6204V21.7716H225.563V29.9063ZM217.704 26.0164C217.704 28.1463 219.163 29.7289 221.157 29.7289C223.256 29.7289 224.819 28.1019 224.819 26.0164C224.819 23.931 223.256 22.3188 221.157 22.3188C219.058 22.3188 217.704 23.9162 217.704 26.0164Z" fill="#CFCDCA"/>
<path d="M236.906 29.9063C236.906 32.3024 235.284 34.0033 232.173 34.0033C231.012 34.0033 229.746 33.6335 229.062 33.2934L229.196 32.5834C230.163 33.0419 231.205 33.2786 232.202 33.2786C234.361 33.2786 236.117 32.1397 236.117 29.8176V28.4125C235.418 29.6549 234.004 30.4684 232.441 30.4684C230.059 30.4684 228.258 28.5456 228.258 26.0312C228.258 23.5169 230.059 21.6089 232.441 21.6089C234.004 21.6089 235.388 22.3928 236.103 23.6204V21.7716H236.906V29.9063ZM229.062 26.0164C229.062 28.1463 230.52 29.7289 232.515 29.7289C234.614 29.7289 236.177 28.1019 236.177 26.0164C236.177 23.931 234.614 22.3188 232.515 22.3188C230.416 22.3188 229.062 23.9162 229.062 26.0164Z" fill="#CFCDCA"/>
<path d="M240.122 18.9318C240.122 18.5473 240.405 18.2662 240.777 18.2662C241.149 18.2662 241.447 18.562 241.447 18.9318C241.447 19.3016 241.164 19.5974 240.777 19.5974C240.39 19.5974 240.122 19.3016 240.122 18.9318ZM240.375 21.7716H241.179V30.2761H240.375V21.7716Z" fill="#CFCDCA"/>
<path d="M248.249 21.5941C250.765 21.5941 252.655 23.5168 252.655 26.0164C252.655 28.516 250.765 30.4388 248.249 30.4388C245.734 30.4388 243.843 28.516 243.843 26.0164C243.843 23.5168 245.734 21.5941 248.249 21.5941ZM248.249 29.7141C250.304 29.7141 251.852 28.0871 251.852 26.0164C251.852 23.9458 250.304 22.3188 248.249 22.3188C246.195 22.3188 244.647 23.9458 244.647 26.0164C244.647 28.0871 246.18 29.7141 248.249 29.7141Z" fill="#CFCDCA"/>
<path d="M256.124 23.1767C256.526 22.1561 257.687 21.5941 258.64 21.5941C259.116 21.5941 259.548 21.668 259.756 21.7716L259.682 22.5111C259.428 22.4224 259.101 22.3484 258.61 22.3484C257.166 22.3484 256.109 23.4133 256.109 25.4544V30.2761H255.305V21.7716H256.109V23.1767H256.124Z" fill="#CFCDCA"/>
<path d="M268.464 29.6549C267.511 30.2317 266.499 30.4536 265.457 30.4536C262.659 30.4536 260.724 28.6492 260.724 26.0312C260.724 23.4133 262.495 21.6089 264.981 21.6089C267.854 21.6089 269.283 23.8718 268.94 26.2975H261.572C261.691 28.6196 263.567 29.6993 265.427 29.6993C266.395 29.6993 267.467 29.4478 268.3 28.871L268.449 29.6549H268.464ZM268.211 25.6319C268.122 23.7683 266.976 22.3484 265.025 22.3484C263.075 22.3484 261.721 23.7535 261.587 25.6319H268.211Z" fill="#CFCDCA"/>
</g>
<defs>
<clipPath id="clip0_2_229">
<rect width="269" height="36" fill="white"/>
</clipPath>
</defs>
</svg>
